<?xml version="1.0" encoding="UTF-8"?>
<svg version="1.1" xmlns="http://www.w3.org/2000/svg" width="32" height="32">
<path d="M0 0 C4.09131007 0.9331058 5.57237355 2.17306228 8.2265625 5.5078125 C9.21130245 9.38968593 8.98565864 12.73658817 7.40625 16.421875 C5.7423406 18.87701405 3.98318623 20.31587486 1.1015625 21.046875 C-2.87023154 21.30182124 -6.00961232 20.82464662 -9.3359375 18.5703125 C-12.17347726 15.00519845 -12.62351797 13.18385855 -12.28125 8.734375 C-10.77250663 2.11911562 -6.6516207 -0.51166313 0 0 Z " fill="#F5F5F5" transform="translate(17.7734375,5.4921875)"/>
<path d="M0 0 C4.09131007 0.9331058 5.57237355 2.17306228 8.2265625 5.5078125 C9.21130245 9.38968593 8.98565864 12.73658817 7.40625 16.421875 C5.7423406 18.87701405 3.98318623 20.31587486 1.1015625 21.046875 C-2.87023154 21.30182124 -6.00961232 20.82464662 -9.3359375 18.5703125 C-12.17347726 15.00519845 -12.62351797 13.18385855 -12.28125 8.734375 C-10.77250663 2.11911562 -6.6516207 -0.51166313 0 0 Z M-9.7734375 7.5078125 C-10.21424146 11.41424755 -9.58643833 14.4346514 -7.2109375 17.5703125 C-3.57028262 18.97056438 -0.47325311 18.65467679 3.2265625 17.5078125 C5.8457807 15.29784714 6.15357996 13.93658491 6.7265625 10.5703125 C6.04466677 6.39370115 4.59652585 4.99865498 1.2265625 2.5078125 C-4.15355774 1.38695412 -6.71669707 3.06164461 -9.7734375 7.5078125 Z " fill="#060606" transform="translate(17.7734375,5.4921875)"/>
</svg>
